# xmcd
#
# Track frame offsets:
#	150
#	13735
#	26548
#	39958
#	51293
#	73279
#	88711
#	103265
#	114969
#	127907
#	139542
#	153704
#	167902
#	182852
#	197058
#	208728
#	220649
#	232897
#	245277
#	258932
#	272754
#	285831
#	299186
#	312626
#	326671
#	340263
#
# Disc length: 4675 seconds
#
# Revision: 0
# Processed by: cddbd v1.5.2PL0 Copyright (c) Steve Scherf et al.
# Submitted via: audiograbber 1.83.01
#
DISCID=8912411a
DTITLE=Various Artist - Dave's 78s Volume 2
DYEAR=1900
DGENRE=
TTITLE0=Artie Shaw - Frenesi
TTITLE1=Hey Daddy
TTITLE2=The Woody Woodpeker Song
TTITLE3=Who Wouldn't Love You
TTITLE4=I Cant Get Started With You
TTITLE5=Chattanooga Choo Choo
TTITLE6=It Isnt Fair
TTITLE7=A Tisket A Tasket
TTITLE8=720 In The Book
TTITLE9=Boo Hoo
TTITLE10=I'll Never Smile Again
TTITLE11=The Angels Sing
TTITLE12=Green Eyes
TTITLE13=My Blue Heaven
TTITLE14=You Made Me Love You
TTITLE15=Got A Date With An Angel
TTITLE16=I've Got A Right
TTITLE17=I Dont Want To Walk Without You
TTITLE18=Look At Me Now
TTITLE19=Taking A Chance On Love
TTITLE20=I Discovered You
TTITLE21=My Extra Ordinary Girl
TTITLE22=Are You Havin Any Fun
TTITLE23=Why Dont We Do This More Often
TTITLE24=Dont Wake Up My Heart
TTITLE25=A You're Adorable
EXTD=
EXTT0=
EXTT1=
EXTT2=
EXTT3=
EXTT4=
EXTT5=
EXTT6=
EXTT7=
EXTT8=
EXTT9=
EXTT10=
EXTT11=
EXTT12=
EXTT13=
EXTT14=
EXTT15=
EXTT16=
EXTT17=
EXTT18=
EXTT19=
EXTT20=
EXTT21=
EXTT22=
EXTT23=
EXTT24=
EXTT25=
PLAYORDER=
